<?xml version="1.0" encoding="utf-8"?>
<!-- Generator: Adobe Illustrator 15.0.0, SVG Export Plug-In  -->
<!DOCTYPE svg PUBLIC "-//W3C//DTD SVG 1.1//EN" "http://www.w3.org/Graphics/SVG/1.1/DTD/svg11.dtd" [
	<!ENTITY ns_flows "http://ns.adobe.com/Flows/1.0/">
]>
<svg version="1.1"
	 xmlns="http://www.w3.org/2000/svg" xmlns:xlink="http://www.w3.org/1999/xlink" xmlns:a="http://ns.adobe.com/AdobeSVGViewerExtensions/3.0/"
	 x="0px" y="0px" width="21px" height="21px" viewBox="0 0 21 21" overflow="visible" enable-background="new 0 0 21 21"
	 xml:space="preserve">
<defs>
</defs>
<path d="M12.199,10.5c0,0,1.801-0.5,1.801-2S13,6,11.5,6H6v9h5.5c1.5,0,2.5-1,2.5-2.5S12.199,10.5,12.199,10.5z M10.5,14H9v-3h1.5
	c0.553,0,0.85,0.672,0.85,1.5S11.053,14,10.5,14z M10.5,10H9V7h1.5c0.553,0,0.85,0.672,0.85,1.5S11.053,10,10.5,10z"/>
<rect opacity="0" fill="#4387FD" width="21" height="21"/>
</svg>
