<?xml version="1.0" encoding="utf-8"?>
<!-- Generator: Adobe Illustrator 15.0.0, SVG Export Plug-In  -->
<!DOCTYPE svg PUBLIC "-//W3C//DTD SVG 1.1//EN" "http://www.w3.org/Graphics/SVG/1.1/DTD/svg11.dtd" [
	<!ENTITY ns_flows "http://ns.adobe.com/Flows/1.0/">
]>
<svg version="1.1"
	 xmlns="http://www.w3.org/2000/svg" xmlns:xlink="http://www.w3.org/1999/xlink" xmlns:a="http://ns.adobe.com/AdobeSVGViewerExtensions/3.0/"
	 x="0px" y="0px" width="21px" height="21px" viewBox="0 0 21 21" overflow="visible" enable-background="new 0 0 21 21"
	 xml:space="preserve">
<defs>
</defs>
<path d="M2.768,11.008V9.992C2.768,9.311,3.318,8.76,4,8.76h5C8.59,7.768,7.525,7,6.5,7h-2C2.566,7,1,8.567,1,10.5S2.566,14,4.5,14
	h2c1.025,0,2.09-0.768,2.5-1.76H4C3.318,12.24,2.768,11.689,2.768,11.008z M15.5,7h-2c-1.025,0-2.09,0.768-2.5,1.76h5
	c0.682,0,1.232,0.551,1.232,1.232v1.016c0,0.682-0.551,1.232-1.232,1.232h-5c0.41,0.992,1.475,1.76,2.5,1.76h2
	c1.934,0,3.5-1.567,3.5-3.5S17.434,7,15.5,7z M6,10.499c0,0.414,0.336,0.751,0.75,0.751h6.5c0.414,0,0.75-0.337,0.75-0.751
	c0-0.415-0.336-0.749-0.75-0.749h-6.5C6.336,9.75,6,10.084,6,10.499z"/>
<rect opacity="0" fill="#4387FD" width="21" height="21"/>
</svg>
