<?xml version="1.0" encoding="utf-8"?>
<!-- Generator: Adobe Illustrator 15.0.0, SVG Export Plug-In  -->
<!DOCTYPE svg PUBLIC "-//W3C//DTD SVG 1.1//EN" "http://www.w3.org/Graphics/SVG/1.1/DTD/svg11.dtd" [
	<!ENTITY ns_flows "http://ns.adobe.com/Flows/1.0/">
]>
<svg version="1.1"
	 xmlns="http://www.w3.org/2000/svg" xmlns:xlink="http://www.w3.org/1999/xlink" xmlns:a="http://ns.adobe.com/AdobeSVGViewerExtensions/3.0/"
	 x="0px" y="0px" width="21px" height="21px" viewBox="0 0 21 21" overflow="visible" enable-background="new 0 0 21 21"
	 xml:space="preserve">
<defs>
</defs>
<path d="M6,15c0-0.553-0.447-1-1-1H3v1h2.25l-1,1l1,1H3v1h2c0.553,0,1-0.447,1-1c0-0.276-0.111-0.526-0.293-0.707L5.414,16
	l0.293-0.293C5.889,15.526,6,15.276,6,15z M5.707,10.707C5.889,10.526,6,10.276,6,10c0-0.553-0.447-1-1-1H3v1h2.25L3,12.25V13h3v-1
	H4.414C4.414,12,5.525,10.889,5.707,10.707z M8,5v1h9V5H8z M4,8h1V4H3v1h1V8z M8,11h9v-1H8V11z M8,16h9v-1H8V16z"/>
<rect opacity="0" fill="#4387FD" width="21" height="21"/>
</svg>
