<?xml version="1.0" encoding="utf-8"?>
<!-- Generator: Adobe Illustrator 15.0.0, SVG Export Plug-In  -->
<!DOCTYPE svg PUBLIC "-//W3C//DTD SVG 1.1//EN" "http://www.w3.org/Graphics/SVG/1.1/DTD/svg11.dtd" [
	<!ENTITY ns_flows "http://ns.adobe.com/Flows/1.0/">
]>
<svg version="1.1"
	 xmlns="http://www.w3.org/2000/svg" xmlns:xlink="http://www.w3.org/1999/xlink" xmlns:a="http://ns.adobe.com/AdobeSVGViewerExtensions/3.0/"
	 x="0px" y="0px" width="21px" height="21px" viewBox="0 0 21 21" overflow="visible" enable-background="new 0 0 21 21"
	 xml:space="preserve">
<defs>
</defs>
<path fill="#888" d="M4.5,9C3.672,9,3,9.672,3,10.5S3.672,12,4.5,12S6,11.328,6,10.5S5.328,9,4.5,9z M4.5,4C3.672,4,3,4.672,3,5.5S3.672,7,4.5,7
	S6,6.328,6,5.5S5.328,4,4.5,4z M4.5,14C3.672,14,3,14.672,3,15.5S3.672,17,4.5,17S6,16.328,6,15.5S5.328,14,4.5,14z M8,16h9v-1H8V16
	z M8,11h9v-1H8V11z M8,5v1h9V5H8z"/>
<rect opacity="0" fill="#4387FD" width="21" height="21"/>
</svg>
