<?xml version="1.0" encoding="UTF-8" standalone="no"?>
<!-- Created with Inkscape (http://www.inkscape.org/) -->

<svg
   xmlns:dc="http://purl.org/dc/elements/1.1/"
   xmlns:cc="http://creativecommons.org/ns#"
   xmlns:rdf="http://www.w3.org/1999/02/22-rdf-syntax-ns#"
   xmlns:svg="http://www.w3.org/2000/svg"
   xmlns="http://www.w3.org/2000/svg"
   xmlns:sodipodi="http://sodipodi.sourceforge.net/DTD/sodipodi-0.dtd"
   xmlns:inkscape="http://www.inkscape.org/namespaces/inkscape"
   version="1.1"
   width="744.09448"
   height="1052.3622"
   id="svg2"
   inkscape:version="0.48.4 r9939"
   sodipodi:docname="string property.svg">
  <sodipodi:namedview
     pagecolor="#ffffff"
     bordercolor="#666666"
     borderopacity="1"
     objecttolerance="10"
     gridtolerance="10"
     guidetolerance="10"
     inkscape:pageopacity="0"
     inkscape:pageshadow="2"
     inkscape:window-width="1503"
     inkscape:window-height="1017"
     id="namedview2994"
     showgrid="false"
     inkscape:zoom="0.68702583"
     inkscape:cx="198.83687"
     inkscape:cy="642.62504"
     inkscape:window-x="75"
     inkscape:window-y="34"
     inkscape:window-maximized="0"
     inkscape:current-layer="svg2" />
  <defs
     id="defs4" />
  <metadata
     id="metadata7">
    <rdf:RDF>
      <cc:Work
         rdf:about="">
        <dc:format>image/svg+xml</dc:format>
        <dc:type
           rdf:resource="http://purl.org/dc/dcmitype/StillImage" />
        <dc:title></dc:title>
      </cc:Work>
    </rdf:RDF>
  </metadata>
  <path
     inkscape:connector-curvature="0"
     style="fill:#000000;fill-rule:evenodd;stroke:none"
     id="rect2991"
     d="m 144.28125,239.5 c -36.40571,0 -65.71875,29.31304 -65.71875,65.71875 l 0,304.28125 c 0,36.40571 29.31304,65.71875 65.71875,65.71875 l 411.4375,0 c 36.40571,0 65.71875,-29.31304 65.71875,-65.71875 l 0,-304.28125 C 621.4375,268.81304 592.12446,239.5 555.71875,239.5 l -411.4375,0 z m 6.125,28.53125 399.1875,0 c 23.21787,0 41.90625,18.07562 41.90625,40.53125 l 0,297.625 c 0,22.45563 -18.68838,40.53125 -41.90625,40.53125 l -399.1875,0 C 127.18838,646.71875 108.5,628.64313 108.5,606.1875 l 0,-297.625 c 0,-22.45563 18.68838,-40.53125 41.90625,-40.53125 z" />
  <g
     id="g3025"
     transform="matrix(0.70710678,0.70710678,-0.70710678,0.70710678,389.84812,-80.011461)">
    <rect
       y="481.78683"
       x="170.29927"
       height="24.74435"
       width="82.966316"
       id="rect3001"
       style="fill:#000000;stroke:none" />
    <rect
       y="326.04306"
       x="231.43234"
       height="180.48811"
       width="21.833241"
       id="rect3003"
       style="fill:#000000;stroke:none" />
  </g>
  <g
     id="g3029"
     transform="matrix(0.70710678,0.70710678,-0.70710678,0.70710678,510.72039,-124.73269)">
    <rect
       y="417.74268"
       x="412.64819"
       height="174.66592"
       width="24.744339"
       id="rect3005"
       style="fill:#000000;stroke:none" />
    <rect
       transform="matrix(0,1,-1,0,0,0)"
       y="-512.35333"
       x="492.70346"
       height="174.66592"
       width="24.744339"
       id="rect3005-5"
       style="fill:#000000;stroke:none" />
  </g>
  <rect
     style="fill:#000000;stroke:none"
     id="rect3033"
     width="29.262108"
     height="564.85187"
     x="545.73669"
     y="-194.49886"
     transform="matrix(0.71743739,0.696623,-0.71743739,0.696623,0,0)" />
</svg>
