<?xml version="1.0" encoding="UTF-8" standalone="no"?>
<!-- Created with Inkscape (http://www.inkscape.org/) -->

<svg
   xmlns:dc="http://purl.org/dc/elements/1.1/"
   xmlns:cc="http://creativecommons.org/ns#"
   xmlns:rdf="http://www.w3.org/1999/02/22-rdf-syntax-ns#"
   xmlns:svg="http://www.w3.org/2000/svg"
   xmlns="http://www.w3.org/2000/svg"
   xmlns:sodipodi="http://sodipodi.sourceforge.net/DTD/sodipodi-0.dtd"
   xmlns:inkscape="http://www.inkscape.org/namespaces/inkscape"
   width="744.09448819"
   height="1052.3622047"
   id="svg2"
   version="1.1"
   inkscape:version="0.48.4 r9939"
   sodipodi:docname="New document 1">
  <defs
     id="defs4" />
  <sodipodi:namedview
     id="base"
     pagecolor="#ffffff"
     bordercolor="#666666"
     borderopacity="1.0"
     inkscape:pageopacity="0.0"
     inkscape:pageshadow="2"
     inkscape:zoom="0.7"
     inkscape:cx="314.60977"
     inkscape:cy="543.34663"
     inkscape:document-units="px"
     inkscape:current-layer="layer1"
     showgrid="false"
     inkscape:window-width="1137"
     inkscape:window-height="944"
     inkscape:window-x="1995"
     inkscape:window-y="31"
     inkscape:window-maximized="0" />
  <metadata
     id="metadata7">
    <rdf:RDF>
      <cc:Work
         rdf:about="">
        <dc:format>image/svg+xml</dc:format>
        <dc:type
           rdf:resource="http://purl.org/dc/dcmitype/StillImage" />
        <dc:title></dc:title>
      </cc:Work>
    </rdf:RDF>
  </metadata>
  <g
     inkscape:label="Layer 1"
     inkscape:groupmode="layer"
     id="layer1">
    <path
       style="fill:#000000;fill-rule:evenodd;stroke:none;stroke-width:1px;stroke-linecap:butt;stroke-linejoin:miter;stroke-opacity:1"
       d="M 144.28125 239.5 C 107.87554 239.5 78.5625 268.81304 78.5625 305.21875 L 78.5625 609.5 C 78.5625 645.90571 107.87554 675.21875 144.28125 675.21875 L 555.71875 675.21875 C 592.12446 675.21875 621.4375 645.90571 621.4375 609.5 L 621.4375 305.21875 C 621.4375 268.81304 592.12446 239.5 555.71875 239.5 L 144.28125 239.5 z M 150.40625 268.03125 L 549.59375 268.03125 C 572.81162 268.03125 591.5 286.10687 591.5 308.5625 L 591.5 606.1875 C 591.5 628.64313 572.81162 646.71875 549.59375 646.71875 L 150.40625 646.71875 C 127.18838 646.71875 108.5 628.64313 108.5 606.1875 L 108.5 308.5625 C 108.5 286.10687 127.18838 268.03125 150.40625 268.03125 z "
       id="rect2991" />
  </g>
</svg>
