<?xml version="1.0" encoding="UTF-8" standalone="no"?>
<!-- Created with Inkscape (http://www.inkscape.org/) -->

<svg
   xmlns:dc="http://purl.org/dc/elements/1.1/"
   xmlns:cc="http://creativecommons.org/ns#"
   xmlns:rdf="http://www.w3.org/1999/02/22-rdf-syntax-ns#"
   xmlns:svg="http://www.w3.org/2000/svg"
   xmlns="http://www.w3.org/2000/svg"
   xmlns:sodipodi="http://sodipodi.sourceforge.net/DTD/sodipodi-0.dtd"
   xmlns:inkscape="http://www.inkscape.org/namespaces/inkscape"
   version="1.1"
   width="744.09448"
   height="1052.3622"
   id="svg2"
   inkscape:version="0.48.4 r9939"
   sodipodi:docname="date property.svg">
  <sodipodi:namedview
     pagecolor="#ffffff"
     bordercolor="#666666"
     borderopacity="1"
     objecttolerance="10"
     gridtolerance="10"
     guidetolerance="10"
     inkscape:pageopacity="0"
     inkscape:pageshadow="2"
     inkscape:window-width="640"
     inkscape:window-height="480"
     id="namedview2994"
     showgrid="false"
     inkscape:zoom="0.46656941"
     inkscape:cx="372.04724"
     inkscape:cy="526.18109"
     inkscape:window-x="75"
     inkscape:window-y="34"
     inkscape:window-maximized="0"
     inkscape:current-layer="svg2" />
  <defs
     id="defs4" />
  <metadata
     id="metadata7">
    <rdf:RDF>
      <cc:Work
         rdf:about="">
        <dc:format>image/svg+xml</dc:format>
        <dc:type
           rdf:resource="http://purl.org/dc/dcmitype/StillImage" />
        <dc:title />
      </cc:Work>
    </rdf:RDF>
  </metadata>
  <g
     id="layer1">
    <path
       d="m 144.28125,239.5 c -36.40571,0 -65.71875,29.31304 -65.71875,65.71875 l 0,304.28125 c 0,36.40571 29.31304,65.71875 65.71875,65.71875 l 411.4375,0 c 36.40571,0 65.71875,-29.31304 65.71875,-65.71875 l 0,-304.28125 C 621.4375,268.81304 592.12446,239.5 555.71875,239.5 l -411.4375,0 z m 6.125,28.53125 399.1875,0 c 23.21787,0 41.90625,18.07562 41.90625,40.53125 l 0,297.625 c 0,22.45563 -18.68838,40.53125 -41.90625,40.53125 l -399.1875,0 C 127.18838,646.71875 108.5,628.64313 108.5,606.1875 l 0,-297.625 c 0,-22.45563 18.68838,-40.53125 41.90625,-40.53125 z"
       id="rect2991"
       style="fill:#000000;fill-rule:evenodd;stroke:none" />
    <g
       transform="translate(-7.859375,0)"
       id="g3141">
      <path
         d="m 261.4375,325.21875 c -30.07429,0 -54.28125,24.20696 -54.28125,54.28125 l 0,155.71875 c 0,30.07429 24.20696,54.28125 54.28125,54.28125 l 192.84375,0 c 30.07429,0 54.28125,-24.20696 54.28125,-54.28125 l 0,-155.71875 c 0,-30.07429 -24.20696,-54.28125 -54.28125,-54.28125 l -192.84375,0 z m -35.75,74.28125 264.3125,0 0,126.625 c 0,24.0255 -17.6444,43.375 -39.5625,43.375 l -185.15625,0 c -21.9181,0 -39.59375,-19.3495 -39.59375,-43.375 l 0,-126.625 z"
         id="rect3129"
         style="fill:#000000;stroke:none" />
        <path
           d="m 323.80806,493.14051 c -1e-5,-5.17605 0.24647,-10.32749 0.73944,-15.45435 0.54225,-5.12673 1.45423,-10.03169 2.73594,-14.7149 1.33098,-4.73235 3.13029,-9.1197 5.39793,-13.16207 2.2676,-4.0422 5.15142,-7.54222 8.65147,-10.50009 3.5,-3.00696 7.69017,-5.34852 12.57052,-7.0247 4.88028,-1.72525 10.59863,-2.58794 17.15507,-2.58805 0.93657,1.1e-4 1.97178,0.0248 3.10565,0.074 1.13376,0.0494 2.26757,0.148 3.40144,0.29577 1.18304,0.0987 2.2922,0.24659 3.32749,0.44367 1.08445,0.148 2.04572,0.34518 2.88382,0.59155 l 0,11.46136 c -1.72543,-0.59146 -3.67262,-1.03512 -5.84159,-1.331 -2.16909,-0.29567 -4.31347,-0.44356 -6.43315,-0.44366 -4.4367,1e-4 -8.35575,0.54235 -11.75713,1.62677 -3.35218,1.03532 -6.26065,2.5142 -8.72542,4.43666 -2.46484,1.92264 -4.53528,4.21491 -6.21132,6.87681 -1.6268,2.66207 -2.95779,5.61984 -3.99299,8.87331 -1.03524,3.20432 -1.79933,6.6304 -2.29227,10.27825 -0.49298,3.64797 -0.81341,7.44377 -0.96127,11.38741 l 0.88733,0 c 0.9859,-1.77461 2.169,-3.42603 3.54932,-4.95427 1.42956,-1.57741 3.08098,-2.90841 4.95427,-3.99298 1.87322,-1.13375 3.9683,-2.02108 6.28526,-2.662 2.36617,-0.64078 5.00351,-0.9612 7.91203,-0.96127 4.68308,7e-5 8.92255,0.73951 12.71841,2.21833 3.79574,1.42965 7.02463,3.54938 9.68669,6.3592 2.66192,2.80994 4.70771,6.26066 6.13737,10.35219 1.47881,4.04233 2.21825,8.67617 2.21833,13.90152 -8e-5,5.61979 -0.76417,10.67264 -2.29227,15.15857 -1.52826,4.48596 -3.72193,8.30641 -6.58104,11.46135 -2.85924,3.10566 -6.30997,5.49653 -10.35219,7.17259 -4.04234,1.67607 -8.57758,2.51411 -13.60574,2.51411 -4.92965,0 -9.56349,-0.96128 -13.90152,-2.88383 -4.28879,-1.92255 -8.01064,-4.85566 -11.16558,-8.79936 -3.15496,-3.94368 -5.64442,-8.89794 -7.46836,-14.86279 -1.82397,-5.96481 -2.73595,-13.01415 -2.73594,-21.14805 m 35.12351,36.38056 c 2.95772,10e-6 5.64436,-0.49295 8.05992,-1.47889 2.46476,-1.0352 4.58449,-2.56338 6.35921,-4.58454 1.7746,-2.07042 3.13024,-4.65846 4.06693,-7.76414 0.98586,-3.15493 1.47882,-6.87679 1.47888,-11.16558 -6e-5,-3.45069 -0.41908,-6.5317 -1.25705,-9.24303 -0.7888,-2.76054 -1.99655,-5.1021 -3.62327,-7.0247 -1.62683,-1.9225 -3.67261,-3.40138 -6.13737,-4.43666 -2.41556,-1.03516 -5.25008,-1.55277 -8.50358,-1.55283 -3.30289,6e-5 -6.3346,0.59161 -9.09514,1.77467 -2.71132,1.13386 -5.02824,2.63739 -6.95076,4.51059 -1.92258,1.82401 -3.42611,3.91909 -4.5106,6.28526 -1.03524,2.36626 -1.55285,4.73247 -1.55283,7.09865 -2e-5,3.30288 0.44364,6.60572 1.331,9.90853 0.9366,3.25357 2.29224,6.18669 4.06693,8.79936 1.82393,2.61271 4.09155,4.75709 6.80287,6.43315 2.71125,1.62678 5.8662,2.44017 9.46486,2.44016"
           id="path3009" />
    </g>
  </g>
</svg>
