<?xml version="1.0" encoding="UTF-8" standalone="no"?>
<!-- Created with Inkscape (http://www.inkscape.org/) -->

<svg
   xmlns:dc="http://purl.org/dc/elements/1.1/"
   xmlns:cc="http://creativecommons.org/ns#"
   xmlns:rdf="http://www.w3.org/1999/02/22-rdf-syntax-ns#"
   xmlns:svg="http://www.w3.org/2000/svg"
   xmlns="http://www.w3.org/2000/svg"
   version="1.1"
   width="744.09448"
   height="1052.3622"
   id="svg2">
  <defs
     id="defs4" />
  <metadata
     id="metadata7">
    <rdf:RDF>
      <cc:Work
         rdf:about="">
        <dc:format>image/svg+xml</dc:format>
        <dc:type
           rdf:resource="http://purl.org/dc/dcmitype/StillImage" />
        <dc:title></dc:title>
      </cc:Work>
    </rdf:RDF>
  </metadata>
  <g
     id="layer1">
    <path
       d="m 144.28125,239.5 c -36.40571,0 -65.71875,29.31304 -65.71875,65.71875 l 0,304.28125 c 0,36.40571 29.31304,65.71875 65.71875,65.71875 l 411.4375,0 c 36.40571,0 65.71875,-29.31304 65.71875,-65.71875 l 0,-304.28125 C 621.4375,268.81304 592.12446,239.5 555.71875,239.5 l -411.4375,0 z m 6.125,28.53125 399.1875,0 c 23.21787,0 41.90625,18.07562 41.90625,40.53125 l 0,297.625 c 0,22.45563 -18.68838,40.53125 -41.90625,40.53125 l -399.1875,0 C 127.18838,646.71875 108.5,628.64313 108.5,606.1875 l 0,-297.625 c 0,-22.45563 18.68838,-40.53125 41.90625,-40.53125 z"
       id="rect2991"
       style="fill:#000000;fill-rule:evenodd;stroke:none" />
    <path
       d="m 350,290.9375 c -91.91596,0 -166.4375,74.49029 -166.4375,166.40625 0,91.91596 74.52154,166.4375 166.4375,166.4375 91.91596,0 166.4375,-74.52154 166.4375,-166.4375 C 516.4375,365.42779 441.91596,290.9375 350,290.9375 z m 0,20 c 80.87027,0 146.4375,65.53598 146.4375,146.40625 0,80.87027 -65.56723,146.4375 -146.4375,146.4375 -80.87027,0 -146.4375,-65.56723 -146.4375,-146.4375 0,-80.87027 65.56723,-146.40625 146.4375,-146.40625 z"
       id="path3165"
       style="fill:#000000;stroke:none" />
    <rect
       width="18.571428"
       height="128.57143"
       rx="0"
       ry="0"
       x="338.57144"
       y="338.07648"
       id="rect3188"
       style="fill:#000000;stroke:none" />
    <rect
       width="19.195385"
       height="88.170143"
       rx="0"
       ry="0"
       x="565.3681"
       y="11.044787"
       transform="matrix(0.71794201,0.69610291,-0.69610291,0.71794201,0,0)"
       id="rect3188-0"
       style="fill:#000000;stroke:none" />
  </g>
</svg>
