<?xml version="1.0" encoding="UTF-8" standalone="no"?>
<!-- Created with Inkscape (http://www.inkscape.org/) -->

<svg
   xmlns:dc="http://purl.org/dc/elements/1.1/"
   xmlns:cc="http://creativecommons.org/ns#"
   xmlns:rdf="http://www.w3.org/1999/02/22-rdf-syntax-ns#"
   xmlns:svg="http://www.w3.org/2000/svg"
   xmlns="http://www.w3.org/2000/svg"
   xmlns:sodipodi="http://sodipodi.sourceforge.net/DTD/sodipodi-0.dtd"
   xmlns:inkscape="http://www.inkscape.org/namespaces/inkscape"
   version="1.1"
   width="744.09448"
   height="1052.3622"
   id="svg2"
   inkscape:version="0.48.4 r9939"
   sodipodi:docname="email property.svg">
  <sodipodi:namedview
     pagecolor="#ffffff"
     bordercolor="#666666"
     borderopacity="1"
     objecttolerance="10"
     gridtolerance="10"
     guidetolerance="10"
     inkscape:pageopacity="0"
     inkscape:pageshadow="2"
     inkscape:window-width="640"
     inkscape:window-height="480"
     id="namedview3003"
     showgrid="false"
     inkscape:zoom="0.22425739"
     inkscape:cx="372.04724"
     inkscape:cy="526.18109"
     inkscape:window-x="65"
     inkscape:window-y="24"
     inkscape:window-maximized="0"
     inkscape:current-layer="svg2" />
  <defs
     id="defs4" />
  <metadata
     id="metadata7">
    <rdf:RDF>
      <cc:Work
         rdf:about="">
        <dc:format>image/svg+xml</dc:format>
        <dc:type
           rdf:resource="http://purl.org/dc/dcmitype/StillImage" />
        <dc:title />
      </cc:Work>
    </rdf:RDF>
  </metadata>
  <g
     id="layer1">
    <path
       d="m 144.28125,239.5 c -36.40571,0 -65.71875,29.31304 -65.71875,65.71875 l 0,304.28125 c 0,36.40571 29.31304,65.71875 65.71875,65.71875 l 411.4375,0 c 36.40571,0 65.71875,-29.31304 65.71875,-65.71875 l 0,-304.28125 C 621.4375,268.81304 592.12446,239.5 555.71875,239.5 l -411.4375,0 z m 6.125,28.53125 399.1875,0 c 23.21787,0 41.90625,18.07562 41.90625,40.53125 l 0,297.625 c 0,22.45563 -18.68838,40.53125 -41.90625,40.53125 l -399.1875,0 C 127.18838,646.71875 108.5,628.64313 108.5,606.1875 l 0,-297.625 c 0,-22.45563 18.68838,-40.53125 41.90625,-40.53125 z"
       id="rect2991"
       style="fill:#000000;fill-rule:evenodd;stroke:none" />
      <path
         d="m 321.18214,458.02955 c -9e-5,10.64852 2.64341,19.02579 7.9305,25.13186 5.2869,6.03168 12.5472,9.0475 21.78094,9.04747 9.15904,3e-5 16.34489,-3.05302 21.55755,-9.15916 5.28686,-6.10607 7.93036,-14.44612 7.9305,-25.02017 -1.4e-4,-10.42499 -2.68087,-18.69057 -8.0422,-24.79676 -5.36159,-6.18049 -12.58467,-9.27077 -21.66924,-9.27087 -9.01035,10e-5 -16.19619,3.05315 -21.55755,9.15917 -5.28709,6.10619 -7.93059,14.409 -7.9305,24.90846 m 60.87495,33.39745 c -4.46803,5.73381 -9.60609,9.9783 -15.41421,12.73348 -5.73391,2.68074 -12.43573,4.02111 -20.10549,4.0211 -12.80804,1e-5 -23.23309,-4.61681 -31.2752,-13.85045 -7.9678,-9.30806 -11.95166,-21.40858 -11.9516,-36.30158 -6e-5,-14.89287 4.02103,-26.99339 12.0633,-36.30157 8.0421,-9.30799 18.42993,-13.96203 31.1635,-13.96214 7.66976,1.1e-4 14.40881,1.41494 20.21719,4.24449 5.80811,2.7553 10.90894,6.96255 15.30251,12.62178 l 0,-14.63233 15.97269,0 0,82.2091 c 10.87168,-1.63819 19.36066,-6.5901 25.46695,-14.85572 6.18038,-8.34 9.27067,-19.10015 9.27086,-32.28048 -1.9e-4,-7.96764 -1.19163,-15.45135 -3.57431,-22.45112 -2.30859,-6.99959 -5.84567,-13.47802 -10.61122,-19.43531 -7.74452,-9.75476 -17.20153,-17.20123 -28.37108,-22.33943 -11.09539,-5.21239 -23.19591,-7.81865 -36.30158,-7.8188 -9.15927,1.5e-4 -17.9461,1.22881 -26.36052,3.68601 -8.41461,2.38301 -16.19617,5.95731 -23.34471,10.72292 -11.69102,7.59553 -20.85018,17.5738 -27.4775,29.93484 -6.55293,12.28678 -9.82938,25.61596 -9.82935,39.98758 -3e-5,11.83995 2.12222,22.93519 6.36674,33.28575 4.31892,10.35062 10.53672,19.47255 18.65342,27.36581 7.81874,7.74432 16.8662,13.62703 27.14241,17.64815 10.27605,4.09554 21.25959,6.14331 32.95066,6.14334 9.60583,-3e-5 19.02562,-1.63825 28.25938,-4.91468 9.30794,-3.202 17.83415,-7.81881 25.57865,-13.85044 l 10.05274,12.39838 c -9.30826,7.22306 -19.47269,12.73345 -30.49332,16.53118 -10.94646,3.87213 -22.07893,5.80821 -33.39745,5.80825 -13.77608,-4e-5 -26.77017,-2.45737 -38.9823,-7.37201 -12.21229,-4.84024 -23.08414,-11.91438 -32.61557,-21.22246 -9.53153,-9.3081 -16.79183,-20.06825 -21.78095,-32.28048 -4.98915,-12.28665 -7.48372,-25.4669 -7.48371,-39.54079 -1e-5,-13.55251 2.53179,-26.47214 7.59541,-38.75891 5.06358,-12.28658 12.28665,-23.08396 21.66925,-32.39217 9.6059,-9.45689 20.70114,-16.67996 33.28575,-21.66925 12.58446,-5.06345 25.91364,-7.59525 39.98758,-7.59541 15.7864,1.6e-4 30.41871,3.23938 43.89698,9.71765 13.55241,6.47858 24.90828,15.67497 34.06763,27.5892 5.58466,7.29766 9.82915,15.22815 12.73348,23.79149 2.97838,8.56354 4.46767,17.42484 4.46788,26.58393 -2.1e-4,19.58428 -5.92015,35.03571 -17.75984,46.35431 -11.84008,11.31866 -28.18509,17.20138 -49.03505,17.64815 l 0,-17.20136"
         style=""
         id="path3006" />
  </g>
</svg>
