<?xml version="1.0" encoding="UTF-8" standalone="no"?>
<!-- Created with Inkscape (http://www.inkscape.org/) -->

<svg
   xmlns:dc="http://purl.org/dc/elements/1.1/"
   xmlns:cc="http://creativecommons.org/ns#"
   xmlns:rdf="http://www.w3.org/1999/02/22-rdf-syntax-ns#"
   xmlns:svg="http://www.w3.org/2000/svg"
   xmlns="http://www.w3.org/2000/svg"
   xmlns:sodipodi="http://sodipodi.sourceforge.net/DTD/sodipodi-0.dtd"
   xmlns:inkscape="http://www.inkscape.org/namespaces/inkscape"
   version="1.1"
   width="542"
   height="435"
   id="svg2"
   inkscape:version="0.48.4 r9939"
   sodipodi:docname="LocalDAOFactory.svg">
  <sodipodi:namedview
     pagecolor="#ffffff"
     bordercolor="#666666"
     borderopacity="1"
     objecttolerance="10"
     gridtolerance="10"
     guidetolerance="10"
     inkscape:pageopacity="0"
     inkscape:pageshadow="2"
     inkscape:window-width="1855"
     inkscape:window-height="1176"
     id="namedview3003"
     showgrid="false"
     inkscape:zoom="1.2685914"
     inkscape:cx="101.85026"
     inkscape:cy="136.58387"
     inkscape:window-x="65"
     inkscape:window-y="24"
     inkscape:window-maximized="1"
     inkscape:current-layer="svg2" />
  <defs
     id="defs4" />
  <metadata
     id="metadata7">
    <rdf:RDF>
      <cc:Work
         rdf:about="">
        <dc:format>image/svg+xml</dc:format>
        <dc:type
           rdf:resource="http://purl.org/dc/dcmitype/StillImage" />
        <dc:title></dc:title>
      </cc:Work>
    </rdf:RDF>
  </metadata>
  <path
     style="fill:none"
     inkscape:connector-curvature="0"
     d="M 121.05172,100.65931 H 420.94828 V 400.55587 H 121.05172 z"
     id="path3198" />
  <g
     id="g3298"
     transform="translate(0,18.728728)">
    <path
       id="path3200"
       d="m 158.53125,150.65625 c -13.74526,0 -24.96875,11.22349 -24.96875,24.96875 l 0,149.96875 c 0,13.74526 11.22349,24.96875 24.96875,24.96875 l 224.9375,0 c 13.74526,0 24.84375,-11.22349 24.84375,-24.96875 l 0.125,-149.96875 c 0,-13.74526 -11.22349,-24.96875 -24.96875,-24.96875 l -23.8125,0 -24.96875,24.96875 23.78125,0 0,149.96875 -174.9375,0 0,-149.96875 23.78125,0 -24.96875,-24.96875 -23.8125,0 z"
       style="fill:#000000"
       inkscape:connector-curvature="0" />
    <path
       sodipodi:nodetypes="cccccccc"
       id="path3271"
       d="m 360.83466,123.98118 -51.33409,0 0,-77.001137 -77.00114,0 0,77.001137 -51.33409,0 89.83465,89.83466 z"
       inkscape:connector-curvature="0"
       style="fill:#000000" />
  </g>
  <path
     style="fill:none"
     inkscape:connector-curvature="0"
     d="m 154.15931,63.546176 233.68139,0 c 36.47764,325.030224 -233.68139,325.030224 -233.68139,0 z"
     id="path3273"
     sodipodi:nodetypes="ccc" />
  <path
     id="path3291"
     d="M 113.16896,28.862037 H 428.83105 V 344.52413 H 113.16896 z"
     inkscape:connector-curvature="0"
     style="fill:none" />
</svg>
