<?xml version="1.0" encoding="UTF-8" standalone="no"?>
<!-- Created with Inkscape (http://www.inkscape.org/) -->

<svg
   xmlns:dc="http://purl.org/dc/elements/1.1/"
   xmlns:cc="http://creativecommons.org/ns#"
   xmlns:rdf="http://www.w3.org/1999/02/22-rdf-syntax-ns#"
   xmlns:svg="http://www.w3.org/2000/svg"
   xmlns="http://www.w3.org/2000/svg"
   xmlns:sodipodi="http://sodipodi.sourceforge.net/DTD/sodipodi-0.dtd"
   xmlns:inkscape="http://www.inkscape.org/namespaces/inkscape"
   version="1.1"
   width="744.09448"
   height="1052.3622"
   id="svg2"
   inkscape:version="0.48.4 r9939"
   sodipodi:docname="integer property.svg">
  <sodipodi:namedview
     pagecolor="#ffffff"
     bordercolor="#666666"
     borderopacity="1"
     objecttolerance="10"
     gridtolerance="10"
     guidetolerance="10"
     inkscape:pageopacity="0"
     inkscape:pageshadow="2"
     inkscape:window-width="640"
     inkscape:window-height="480"
     id="namedview3046"
     showgrid="false"
     inkscape:zoom="0.22425739"
     inkscape:cx="372.04724"
     inkscape:cy="526.18109"
     inkscape:window-x="65"
     inkscape:window-y="24"
     inkscape:window-maximized="0"
     inkscape:current-layer="svg2" />
  <defs
     id="defs4" />
  <metadata
     id="metadata7">
    <rdf:RDF>
      <cc:Work
         rdf:about="">
        <dc:format>image/svg+xml</dc:format>
        <dc:type
           rdf:resource="http://purl.org/dc/dcmitype/StillImage" />
        <dc:title />
      </cc:Work>
    </rdf:RDF>
  </metadata>
  <g
     id="layer1"
     transform="translate(4.4591618,4.4591618)">
    <path
       d="m 144.28125,239.5 c -36.40571,0 -65.71875,29.31304 -65.71875,65.71875 l 0,304.28125 c 0,36.40571 29.31304,65.71875 65.71875,65.71875 l 411.4375,0 c 36.40571,0 65.71875,-29.31304 65.71875,-65.71875 l 0,-304.28125 C 621.4375,268.81304 592.12446,239.5 555.71875,239.5 l -411.4375,0 z m 6.125,28.53125 399.1875,0 c 23.21787,0 41.90625,18.07562 41.90625,40.53125 l 0,297.625 c 0,22.45563 -18.68838,40.53125 -41.90625,40.53125 l -399.1875,0 C 127.18838,646.71875 108.5,628.64313 108.5,606.1875 l 0,-297.625 c 0,-22.45563 18.68838,-40.53125 41.90625,-40.53125 z"
       id="rect2991"
       style="fill:#000000;fill-rule:evenodd;stroke:none"
       inkscape:connector-curvature="0" />
    <g
       transform="scale(0.93015797,1.0750862)"
       style="font-size:219.33227539px;font-style:normal;font-variant:normal;font-weight:normal;font-stretch:normal;text-align:start;line-height:125%;letter-spacing:0px;word-spacing:0px;writing-mode:lr-tb;text-anchor:start;fill:#000000;fill-opacity:1;stroke:none;font-family:Courier 10 Pitch;-inkscape-font-specification:Courier 10 Pitch"
       id="text3066">
      <path
         d="m 216.15391,378.04068 20.17857,-4.82531 0,104.6215 -17.76592,0 c -10.08927,0 -14.69526,0.43867 -14.69526,7.4573 0,5.04463 2.85132,7.67662 8.55396,7.67662 l 64.04502,0 c 5.70264,0 8.55396,-2.63199 8.55396,-7.67662 0,-7.01863 -4.60599,-7.4573 -14.69526,-7.4573 l -17.10792,0 0,-115.80744 c 0,-4.38664 -1.75466,-7.01864 -4.38664,-7.01864 -1.316,0 -2.85133,0.21934 -4.60598,0.658 l -31.80318,8.55396 c -4.60597,1.31599 -7.01863,3.94798 -7.01863,7.4573 0,3.94797 2.85132,6.7993 7.45729,6.7993 1.09666,0 2.19333,-0.21934 3.28999,-0.43867"
         style=""
         id="path3049" />
      <path
         d="m 336.47137,492.97079 70.625,0 c 3.28998,0 5.70264,-2.41265 6.1413,-7.01863 l 1.09666,-8.33462 c 0,-0.658 0.21933,-1.53533 0.21933,-2.19333 0,-5.70263 -3.07065,-8.77329 -7.67663,-8.77329 -4.60597,0 -7.45729,3.07066 -8.11529,9.43129 l -48.9111,0 13.15994,-12.72127 c 27.85517,-27.63584 50.66575,-43.86648 50.66575,-69.309 0,-22.37187 -17.76593,-39.69914 -41.67313,-39.69914 -14.47591,0 -28.73253,5.70264 -37.72515,14.47593 -3.28998,3.28998 -3.50932,5.26398 -3.50932,9.43128 0,7.45729 1.09667,11.18595 6.36064,11.18595 7.45729,0 8.99263,-6.36064 11.62461,-9.86995 4.82531,-6.36063 13.81794,-10.30862 22.81056,-10.30862 13.81792,0 23.46855,10.30863 23.46855,25.66188 0,17.98523 -17.98527,32.89987 -46.05978,59.43904 -15.13391,14.47592 -23.68788,21.71391 -23.68788,29.1712 0,6.57996 3.72865,9.43128 11.18594,9.43128"
         style=""
         id="path3051" />
      <path
         d="m 522.36919,419.27515 c 14.91458,-5.26397 21.7139,-14.91461 21.7139,-29.82919 0,-19.08189 -15.79195,-35.09316 -38.82182,-35.09316 -21.71387,0 -38.60248,12.28261 -38.60248,19.52057 0,3.94798 3.07066,6.7993 7.01864,6.7993 6.57996,0 14.69527,-11.40528 30.48718,-11.40528 12.72126,0 22.15256,9.4313 22.15256,23.24922 0,10.52794 -7.45731,18.64325 -18.64324,20.3979 -11.18594,1.75466 -14.47593,0.21934 -14.47593,8.1153 0,9.43128 5.70265,6.36064 16.66925,8.33462 12.94059,2.41266 20.61724,11.84396 20.61724,24.56522 0,15.13391 -11.4053,26.10054 -28.73253,26.10054 -17.1079,0 -28.07454,-10.96661 -34.43517,-10.96661 -4.38664,0 -7.89596,3.07065 -7.89596,7.45729 0,9.65061 18.8626,19.95924 41.67313,19.95924 28.7325,0 47.5951,-18.2046 47.5951,-42.55046 0,-17.32723 -9.4313,-30.04853 -26.31987,-34.6545"
         style=""
         id="path3053" />
    </g>
  </g>
</svg>
