<?xml version="1.0" encoding="UTF-8" standalone="no"?>
<!-- Created with Inkscape (http://www.inkscape.org/) -->

<svg
   xmlns:dc="http://purl.org/dc/elements/1.1/"
   xmlns:cc="http://creativecommons.org/ns#"
   xmlns:rdf="http://www.w3.org/1999/02/22-rdf-syntax-ns#"
   xmlns:svg="http://www.w3.org/2000/svg"
   xmlns="http://www.w3.org/2000/svg"
   xmlns:sodipodi="http://sodipodi.sourceforge.net/DTD/sodipodi-0.dtd"
   xmlns:inkscape="http://www.inkscape.org/namespaces/inkscape"
   version="1.1"
   width="542"
   height="435"
   id="svg2"
   inkscape:version="0.48.4 r9939"
   sodipodi:docname="StringProperty.svg">
  <sodipodi:namedview
     pagecolor="#ffffff"
     bordercolor="#666666"
     borderopacity="1"
     objecttolerance="10"
     gridtolerance="10"
     guidetolerance="10"
     inkscape:pageopacity="0"
     inkscape:pageshadow="2"
     inkscape:window-width="1855"
     inkscape:window-height="1176"
     id="namedview2994"
     showgrid="false"
     inkscape:zoom="0.68702583"
     inkscape:cx="-202.01092"
     inkscape:cy="562.91833"
     inkscape:window-x="65"
     inkscape:window-y="24"
     inkscape:window-maximized="1"
     inkscape:current-layer="svg2" />
  <defs
     id="defs4" />
  <metadata
     id="metadata7">
    <rdf:RDF>
      <cc:Work
         rdf:about="">
        <dc:format>image/svg+xml</dc:format>
        <dc:type
           rdf:resource="http://purl.org/dc/dcmitype/StillImage" />
        <dc:title />
      </cc:Work>
    </rdf:RDF>
  </metadata>
  <g
     style="font-size:219.33227539px;font-style:normal;font-variant:normal;font-weight:normal;font-stretch:normal;text-align:start;line-height:125%;letter-spacing:0px;word-spacing:0px;writing-mode:lr-tb;text-anchor:start;fill:#000000;fill-opacity:1;stroke:none;font-family:Courier 10 Pitch;-inkscape-font-specification:Courier 10 Pitch"
     id="text3066"
     transform="matrix(0.93015797,0,0,1.0750862,-78.999999,-239.85936)">
    <path
       inkscape:connector-curvature="0"
       id="path3014"
       d="m 269.99997,480.57852 1.09666,6.57997 c 0.87733,4.60597 3.50932,7.01863 7.4573,7.01863 l 16.88858,0 c 5.70264,0 8.55396,-2.63199 8.55396,-7.67663 0,-6.36063 -3.72866,-7.45729 -12.72127,-7.45729 l -5.48331,0 0,-48.47244 c 0,-25.88118 -12.7213,-37.94448 -40.1378,-37.94448 -24.12653,0 -39.91848,7.67664 -39.91848,15.13393 0,5.4833 3.28999,8.99262 7.23797,8.99262 8.33461,0 17.10793,-8.99262 32.24184,-8.99262 16.44991,0 24.12655,7.67664 24.12655,24.12655 0,0.21933 0,0.43866 0,0.65799 -8.77328,-2.19332 -17.10792,-3.28998 -25.44254,-3.28998 -31.80315,0 -49.5691,13.37929 -49.5691,35.53183 0,18.86256 14.03729,32.02251 35.53183,32.02251 14.69525,0 28.51321,-5.70265 40.13781,-16.23059 m -0.658,-33.77717 0,11.62461 c 0,9.65061 -17.5466,21.93323 -36.84782,21.93323 -12.50193,0 -21.0559,-7.23797 -21.0559,-16.66925 0,-12.06327 12.50196,-20.61724 35.3125,-20.61724 7.89595,0 15.35326,1.316 22.59122,3.72865" />
    <path
       inkscape:connector-curvature="0"
       id="path3016"
       d="m 349.9603,410.61153 0,-52.20108 c 0,-3.07065 -1.974,-4.38665 -6.14131,-4.38665 l -16.23059,0 c -5.70263,0 -8.55395,2.63199 -8.55395,7.67663 0,5.4833 3.07065,7.4573 9.86995,7.4573 1.53532,0 3.28998,0.21933 4.82531,0.21933 l 0,109.66614 c -0.87733,0 -1.53533,0 -2.19332,0 -8.77329,0 -12.50194,1.316 -12.50194,7.45729 0,5.04464 2.85132,7.67663 8.55395,7.67663 l 19.52058,0 c 3.28998,0 4.38664,-1.75466 4.38664,-5.4833 l 0,-8.55396 c 7.23796,10.74727 18.42393,16.01125 33.33851,16.01125 28.7325,0 50.66575,-22.59125 50.66575,-50.44642 0,-28.29383 -21.49459,-50.44642 -50.22709,-50.44642 -15.13391,0 -27.19721,5.26398 -35.31249,15.35326 m 33.3385,68.651 c -19.95921,0 -33.77717,-14.47595 -33.77717,-34.21584 0,-19.95921 14.03729,-34.21583 33.77717,-34.21583 19.95922,0 33.77717,14.69528 33.77717,34.21583 0,20.39789 -13.81795,34.21584 -33.77717,34.21584" />
    <path
       inkscape:connector-curvature="0"
       id="path3018"
       d="m 557.79134,427.50011 0,-19.95923 c 0,-9.21195 -1.09667,-13.15994 -7.67663,-13.15994 -5.4833,0 -8.33462,1.97399 -8.33462,6.7993 0,0 0,0.21933 0,0.43866 -11.84394,-5.92196 -22.59124,-8.99262 -33.77717,-8.99262 -30.70649,0 -53.95574,22.59125 -53.95574,52.20108 0,29.60983 23.02992,51.98175 54.17507,51.98175 25.88118,0 50.00776,-16.01126 50.00776,-26.10054 0,-4.38664 -3.07066,-7.4573 -7.4573,-7.4573 -5.70263,0 -9.86996,5.26398 -16.44992,9.65062 -7.67662,5.04464 -16.44993,7.89597 -25.00388,7.89597 -22.37187,0 -36.62849,-14.91462 -36.62849,-36.18983 0,-20.61721 15.35328,-35.3125 37.50582,-35.3125 12.72126,0 22.81056,5.92199 29.39052,17.54659 3.28998,5.92196 5.48331,8.55395 10.08929,8.55395 5.26397,0 8.11529,-2.63199 8.11529,-7.89596" />
  </g>
</svg>
