<?xml version="1.0" encoding="UTF-8" standalone="no"?>
<!-- Created with Inkscape (http://www.inkscape.org/) -->

<svg
   xmlns:dc="http://purl.org/dc/elements/1.1/"
   xmlns:cc="http://creativecommons.org/ns#"
   xmlns:rdf="http://www.w3.org/1999/02/22-rdf-syntax-ns#"
   xmlns:svg="http://www.w3.org/2000/svg"
   xmlns="http://www.w3.org/2000/svg"
   xmlns:sodipodi="http://sodipodi.sourceforge.net/DTD/sodipodi-0.dtd"
   xmlns:inkscape="http://www.inkscape.org/namespaces/inkscape"
   width="542"
   height="435"
   id="svg2"
   version="1.1"
   inkscape:version="0.48.4 r9939"
   sodipodi:docname="box outline.svg">
  <defs
     id="defs4" />
  <sodipodi:namedview
     id="base"
     pagecolor="#ffffff"
     bordercolor="#666666"
     borderopacity="1.0"
     inkscape:pageopacity="0.0"
     inkscape:pageshadow="2"
     inkscape:zoom="0.7"
     inkscape:cx="-25.39023"
     inkscape:cy="543.34663"
     inkscape:document-units="px"
     inkscape:current-layer="layer1"
     showgrid="false"
     inkscape:window-width="1137"
     inkscape:window-height="944"
     inkscape:window-x="480"
     inkscape:window-y="112"
     inkscape:window-maximized="0" />
  <metadata
     id="metadata7">
    <rdf:RDF>
      <cc:Work
         rdf:about="">
        <dc:format>image/svg+xml</dc:format>
        <dc:type
           rdf:resource="http://purl.org/dc/dcmitype/StillImage" />
        <dc:title />
      </cc:Work>
    </rdf:RDF>
  </metadata>
  <g
     inkscape:label="Layer 1"
     inkscape:groupmode="layer"
     id="layer1"
     transform="translate(0,-617.36218)">
    <path
       style="fill:#000000;fill-rule:evenodd;stroke:none"
       d="m 65.28125,617.00281 c -36.40571,0 -65.7187493,29.31304 -65.7187493,65.71875 l 0,304.28124 c 0,36.4057 29.3130393,65.7188 65.7187493,65.7188 l 411.4375,0 c 36.40571,0 65.71875,-29.3131 65.71875,-65.7188 l 0,-304.28124 c 0,-36.40571 -29.31304,-65.71875 -65.71875,-65.71875 l -411.4375,0 z m 6.125,28.53125 399.1875,0 c 23.21787,0 41.90625,18.07562 41.90625,40.53125 l 0,297.62499 c 0,22.4556 -18.68838,40.5313 -41.90625,40.5313 l -399.1875,0 C 48.18838,1024.2216 29.5,1006.1459 29.5,983.6903 l 0,-297.62499 c 0,-22.45563 18.68838,-40.53125 41.90625,-40.53125 z"
       id="rect2991"
       inkscape:connector-curvature="0" />
  </g>
</svg>
