<?xml version="1.0" encoding="utf-8"?>
<!-- Generator: Adobe Illustrator 15.0.0, SVG Export Plug-In  -->
<!DOCTYPE svg PUBLIC "-//W3C//DTD SVG 1.1//EN" "http://www.w3.org/Graphics/SVG/1.1/DTD/svg11.dtd" [
	<!ENTITY ns_flows "http://ns.adobe.com/Flows/1.0/">
]>
<svg version="1.1"
	 xmlns="http://www.w3.org/2000/svg" xmlns:xlink="http://www.w3.org/1999/xlink" xmlns:a="http://ns.adobe.com/AdobeSVGViewerExtensions/3.0/"
	 x="0px" y="0px" width="21px" height="21px" viewBox="0 0 21 21" overflow="visible" enable-background="new 0 0 21 21"
	 xml:space="preserve">
<defs>
</defs>
<path d="M17.78,6.22L16,4.222C15.864,4.085,15.676,4,15.468,4H6.53C6.323,4,6.136,4.084,6,4.22l-1.78,2C4.084,6.355,4,6.543,4,6.75
	v8.5C4,15.664,4.336,16,4.75,16h12.5c0.414,0,0.75-0.336,0.75-0.75v-8.5C18,6.543,17.916,6.355,17.78,6.22z M6.7,5h8.6l0.9,1H5.8
	L6.7,5z M11,14.5L7.5,11H10V8h2v3h2.5L11,14.5z"/>
<rect opacity="0" fill="#4387FD" width="21" height="21"/>
</svg>
